<svg xmlns="http://www.w3.org/2000/svg" xml:space="preserve" width="176.907" height="176.907" viewBox="0 0 176.907 176.907"><path fill="#fff" stroke="#fff" stroke-miterlimit="10.433" stroke-width=".002" d="M13.757 76.674c-3.779-.201-5.752 2.375-5.969 6.438l-.25 4.564.334.017c.167-1.288.334-1.472 1.605-1.321l7.507.384h.217l.083.017h.184l.083.017h.067l.083.017.067.017.067.017.05.017.067.033.05.017.05.033.033.033.05.05.034.034.033.05.034.05.033.05.017.067.017.05.033.083.017.067.017.083v.083l.017.083v.101l.017.083v.334l.318.017.268-4.782c.268-5.181-2.975-6.685-5.233-6.803zm4.565 7.341v.134l-.017.066v.134l-.017.05v.067l-.017.05-.017.033v.05l-.017.05-.017.033-.017.034-.017.033-.017.034-.017.033-.017.017-.033.033-.017.017-.033.017-.017.017-.033.017-.034.017-.034.017h-.033l-.05.017h-.264l-8.594-.452c-.335-.017-.653-.033-.619-.82.117-2.14.619-3.06 1.388-3.829 1.12-1.12 2.508-1.455 3.929-1.371 4.915.252 4.698 4.415 4.631 5.502z"/><path fill="none" stroke="#efd764" stroke-miterlimit="10.433" stroke-width=".006" d="m41.111 105.717 3.11-38.506c-.285-15.082-5.284-16.52-5.284-16.52l19.613-11.82c18.609 10.734 29.645-3.344 29.645-3.344 16.502 15.8 30.464 3.645 30.464 3.645l20.448 11.67c-6.571 7.106-5.534 12.306-5.534 12.306l1.688 42.067L88.746 70.99z"/><path fill="none" stroke="#efd764" stroke-miterlimit="10.433" stroke-width=".005" d="m88.679 150.777.017-.017.034-.066.083-.101.117-.134.151-.184.167-.201.234-.234.25-.268.301-.301.334-.318.368-.351.418-.368.468-.385.502-.401.552-.418.602-.418.652-.451.685-.452.752-.451.786-.469.853-.468.903-.468.953-.468 1.02-.451 1.054-.468 1.137-.451 1.17-.452 1.254-.435 1.304-.418 1.354-.401 1.438-.401 1.488-.368s11.219-.385 21.118-15.784L88.462 93.511l-42 29.795c10.5 15.483 21.77 15.801 21.77 15.801 17.254 5.902 20.447 11.67 20.447 11.67z"/><path fill="none" stroke="#fff" stroke-miterlimit="10.433" stroke-width=".004" d="M56.276 122.504h12.072"/><path fill="none" stroke="#fff" stroke-miterlimit="10.433" stroke-width=".469" d="M67.946 130.044h.971v-3.16M61.108 130.044h1.17v-.702"/><path fill="none" stroke="#fff" stroke-miterlimit="10.433" stroke-width=".004" d="M58.918 126.182v5.869"/><path fill="#fff" d="M69.919 123.156v-.067l.017-.05.017-.066.017-.067.017-.05.034-.05.033-.117.05-.1.05-.101.067-.1.05-.083.067-.083.067-.084.067-.067.067-.083.083-.067.067-.05.067-.067.067-.05.067-.05.067-.05.067-.033.067-.05.067-.033.067-.034.05-.033.05-.017.05-.017.034-.017.05-.017.017-.017.033-.017h.034c-2.025-.236-1.624 1.787-1.624 1.787"/><path fill="none" stroke="#fff" stroke-miterlimit="10.433" stroke-width=".003" d="M75.487 122.537h26.083"/><path fill="#fff" d="M103.928 122.103h.168l.017-.017h.05l.017-.017h.017l.034-.017h.017l.033-.017.034-.033.033-.017.034-.033.033-.017.034-.033.033-.033.017-.017.034-.034.017-.033.034-.033.017-.034.017-.017.017-.033.017-.034.017-.017.017-.017v-.033l.017-.017v-.017h.017v-.033h.017v-.017c-.542.101-.809.62-.809.62"/><path fill="none" stroke="#fff" stroke-miterlimit="10.433" stroke-width=".004" d="M116.334 125.313c1.053 2.057 0 4.983 0 4.983M116.417 118.157c.836 1.755-.301 4.38-.301 4.38M110.114 115.13l-.15.117-.151.117-.15.117-.133.134-.134.15-.134.134-.117.15-.134.167-.101.151-.117.184-.117.167-.1.184-.101.184-.083.201-.084.201-.083.201-.083.201-.083.217-.067.217-.067.234-.067.217-.05.234-.067.251-.05.234-.034.251-.05.25-.034.251-.034.268-.033.25-.034.268-.017.285-.017.267c-.167 2.926 0 5.267.569 7.357.702 2.592 2.541 3.729 2.541 3.729"/><path fill="none" stroke="#fff" stroke-miterlimit="10.433" stroke-width=".586" d="m58.784 57.413.117-.017.134-.033.117-.017.117-.033.117-.034.117-.016.217-.084.218-.067.2-.1.201-.084.184-.117.167-.1.167-.117.167-.117.151-.117.134-.117.133-.118.134-.133.117-.117.1-.134.101-.117.1-.117.084-.117.084-.1.066-.118.067-.1.05-.083.051-.084.05-.084.033-.067.017-.049.033-.051v-.016l.017-.017v-.017l20.164-4.648.703.786"/><path fill="#fff" d="m52.648 54.42.619 1.756-.101-1.923z"/><path fill="none" stroke="#fff" stroke-miterlimit="10.433" stroke-width=".352" d="m52.648 54.42.619 1.756-.101-1.923z"/><path fill="#fff" d="m117.471 56.878.133.034.134.017.134.017.133.017.134.017h.251l.134-.017h.117l.117-.017.117-.017.117-.033.117-.017.117-.033.217-.067.217-.101.201-.083.201-.117.184-.117.184-.117.167-.117.167-.134.167-.15.133-.134.151-.134.117-.15.134-.134.1-.134.101-.117.1-.134.083-.117.067-.101.067-.1.067-.083.017-.034.017-.033.017-.034.017-.033.017-.017.017-.034v-.017h.017v-.017l1.404.317c-2.107 4.031-6.103 2.275-6.103 2.275"/><path fill="none" stroke="#fff" stroke-miterlimit="10.433" stroke-width=".782" d="m91.037 52.146 1.939-1.755 2.107.351"/><path fill="none" stroke="#fff" stroke-miterlimit="10.433" stroke-width=".007" d="m86.74 56.61-.167 6.755c-.084 1.405 1.488 1.756 1.488 1.756"/><path fill="none" stroke="#fff" stroke-miterlimit="10.433" stroke-width=".5" d="m58.383 62.262-.034 16.619 8.461-.067zM57.53 62.947l.017 15.851h-8.945z"/><path fill="#fff" d="m54.671 81.808-.05-.05-.067-.034-.067-.033-.05-.034-.117-.083-.117-.083-.1-.083-.083-.083-.084-.101-.083-.083-.083-.083-.067-.101-.067-.083-.05-.083-.05-.101-.05-.083-.05-.083-.036-.087-.033-.083-.033-.084-.034-.068-.017-.083-.034-.067-.017-.067-.017-.05-.015-.067v-.05l-.017-.034V79.7l-.017-.017v-.033l12.59.034c-.452 2.057-2.809 3.544-2.809 3.544 1.588-1.672 1.354-3.009 1.354-3.009h-9.848c-.417.518.218 1.589.218 1.589"/><path fill="none" stroke="#fff" stroke-miterlimit="10.433" stroke-width=".5" d="m117.655 63.315-.051 15.917h-8.409zM118.391 63.231l.067 15.968h8.844z"/><path fill="#fff" d="m58.149 63.031.05-.017h.117l.05-.017.05-.017.067-.017.05-.017.05-.017.05-.033.05-.017.034-.033.05-.034.05-.033.034-.034.05-.033.034-.05.033-.033.034-.05.033-.05.034-.033.033-.05.017-.05.033-.05.017-.067.034-.05.017-.05v-.067l.017-.05.017-.067v-.05l.017-.067v-.067c0-.669-.519-1.204-1.12-1.204-.619 0-1.121.535-1.121 1.204-.002.668.5 1.22 1.119 1.22M117.906 63.365h.117l.067-.017h.05l.05-.017.05-.017.05-.017.05-.017.05-.034.05-.033.05-.017.05-.034.033-.033.051-.034.033-.05.05-.034.033-.033.033-.05.034-.05.033-.05.034-.05.017-.05.033-.05.017-.05.017-.05.017-.067.017-.05.017-.05v-.067l.017-.067v-.117c0-.669-.485-1.204-1.12-1.204-.602 0-1.104.535-1.104 1.204 0 .67.502 1.205 1.104 1.205"/><path fill="none" stroke="#fff" stroke-miterlimit="10.433" stroke-width="2" d="m88.462 154.193 3.378-.083 3.345-.265 3.279-.414 3.246-.58 3.179-.728 3.114-.895 3.064-1.026 2.98-1.176 2.915-1.325 2.832-1.44 2.75-1.59 2.667-1.706 2.583-1.839 2.484-1.954 2.384-2.053 2.286-2.187 2.17-2.286 2.07-2.384 1.954-2.484 1.822-2.567 1.722-2.667 1.573-2.766 1.457-2.832 1.309-2.915 1.176-2.981 1.043-3.047.878-3.13.745-3.18.563-3.229.43-3.295.249-3.346.083-3.378c0-36.302-29.429-65.731-65.731-65.731-36.319 0-65.748 29.429-65.748 65.731s29.43 65.748 65.749 65.748z"/><path fill="none" stroke="#fff" stroke-miterlimit="10.433" stroke-width="2" d="m88.462 175.907 4.498-.117 4.431-.334 4.38-.552 4.314-.769 4.23-.986 4.146-1.17 4.063-1.371 3.979-1.572 3.862-1.755 3.779-1.923 3.662-2.106 3.544-2.274 3.427-2.441 3.311-2.592 3.16-2.758 3.043-2.893 2.892-3.043 2.759-3.177 2.592-3.294 2.441-3.427 2.274-3.544 2.107-3.679 1.923-3.762 1.755-3.879 1.572-3.962 1.371-4.063 1.17-4.163.986-4.23.769-4.297.552-4.38.334-4.448.117-4.498C175.907 40.158 136.749 1 88.462 1 40.158 1 1 40.158 1 88.445c0 48.304 39.158 87.462 87.462 87.462z"/><g fill="#fff"><path d="m57.337 63.29-8.736 15.508h8.945l-.016-15.415a2 2 0 0 1-.193-.093M110.064 80.119h.017v.034l.017.017.017.05.017.033.017.05.017.067.034.05.033.084.034.067.05.083.033.083.05.083.05.083.067.101.05.101.067.1.066.1.083.101.067.1.083.101.1.117.083.101.101.1.1.117.117.101.1.1.117.1.134.101.134.1.134.101s-.268-1.188.15-1.839h9.832s-.151 1.003-1.806 3.126c0 0 2.458-1.137 2.926-3.762l-13.092-.067v.016zM117.653 63.843a1.6 1.6 0 0 1-.248-.059l-8.211 15.449h8.41zM118.608 63.7l-.084.033-.066.017-.065.026.065 15.423h8.844l-8.663-15.523z"/><path d="M41.111 105.717 88.746 70.99l46.515 34.226-1.688-42.067s-1.037-5.2 5.534-12.306l-20.448-11.67s-13.961 12.155-30.464-3.645c0 0-11.035 14.078-29.645 3.344L38.938 50.691s4.999 1.438 5.284 16.52zm15.366-43.89c0-.461.186-.88.486-1.184l-.135-.003c-4.748-2.458-5.033-6.705-5.033-6.705l2.525-.535c3.779 5.902 7.725.217 7.725.217l21.067-4.431 3.361 2.976 1.421-9.748.083.25 1.304 9.497 3.678-2.876 21.034 4.598s3.879 5.735 7.725-.15l2.508.552s-.317 4.247-5.083 6.671l-.127.002c.324.306.528.737.528 1.219v.083l-.017.083v.084l-.017.083-.017.083-.034.083-.017.083-.033.067-.034.084-.034.067-.05.067-.034.067-.05.067-.014.019 8.926 16.083s-8.544 14.613-19.997.585l8.573-16.537a1.7 1.7 0 0 1-.447-1.153c0-.466.19-.888.494-1.192l-.41.005s-3.745-.836-4.682-4.464H90.251l.886 7.273s-.268 2.625-2.809 2.375c0 0-2.107.251-2.859-2.341l.318-7.39h-.033l-21.452.083c-.97 3.628-4.665 4.18-4.665 4.18l-.304-.004c.269.298.438.692.438 1.127v.101l-.017.083v.084l-.017.083-.017.067-.033.083-.017.084-.034.066-.033.084-.033.068-.05.067-.033.066-.05.067-.009.012 8.452 16.641c-11.57 13.911-19.997-.769-19.997-.769l8.956-15.849a1.66 1.66 0 0 1-.362-1.038"/><path d="m58.901 63.298-.067.051-.067.033-.083.017-.067.033-.084.017-.083.017-.07.013-.031 15.402 8.461-.067-7.901-15.519z"/></g><path fill="none" d="m46.177 123.273-.568-.836-.568-.886-.535-.92-.502-.953-.501-.987-.452-1.036-.435-1.037-.401-1.07-.351-1.087-.334-1.104-.267-1.12-.234-1.104-.201-1.121-.067-.568-.067-.552-.05-.551-.034-.552-.017-.552-.017-.535 48.17-34.911 46.983 34.61c0 5.802-1.12 13.042-4.213 17.355l-43.054-31.03z"/><path fill="#fff" d="m24.006 115.047 2.241 4.414-.284.151c-.769-1.354-1.137-1.221-2.174-.568l-7.541 3.812.334.735c.836 1.656 1.337 1.923 3.143 1.421l.184.368-2.608 1.204-4.313-8.51 2.524-1.388.184.351c-1.505 1.171-1.555 1.739-.719 3.394l.351.82 7.708-3.913c1.087-.519 1.288-.853.686-2.14z"/><path fill="#fff" stroke="#fff" stroke-miterlimit="10.433" stroke-width=".002" d="m24.006 115.047 2.241 4.414-.284.151c-.769-1.354-1.137-1.221-2.174-.568l-7.541 3.812.334.735c.836 1.656 1.337 1.923 3.143 1.421l.184.368-2.608 1.204-4.313-8.51 2.524-1.388.184.351c-1.505 1.171-1.555 1.739-.719 3.394l.351.82 7.708-3.913c1.087-.519 1.288-.853.686-2.14z"/><path fill="#fff" d="m22.953 112.856-.017-.067-.034-.05-.017-.067-.017-.05-.033-.05-.017-.05-.033-.05-.017-.05-.017-.05-.033-.05-.017-.034-.017-.05-.033-.034-.017-.033-.05-.067-.05-.067-.05-.05-.05-.05-.05-.05-.05-.034-.05-.033-.05-.034-.067-.017-.05-.017-.067-.017-.067-.017h-.133l-.067.017h-.067l-.083.017-.083.017-.083.017-.084.017-.1.033-.101.033-.1.017-.1.033-.117.033-6.972 2.274c-1.187.385-1.271.652-.987 1.873l-.301.1-1.455-4.464.318-.1c.485 1.187.752 1.304 1.906.953l3.11-1.02-1.638-4.882-3.11 1.02c-1.137.385-1.22.652-.936 1.873l-.301.117-1.455-4.481.301-.101c.501 1.188.769 1.321 1.906.937l7.156-2.307c1.054-.334 1.321-.602.986-1.873l.301-.117 1.455 4.481-.301.1c-.501-1.337-.886-1.271-2.09-.886l-3.143 1.02 1.672 4.949 3.311-1.07c.986-.418 1.237-.686.903-1.973l.318-.101 1.438 4.481z"/><path fill="#fff" stroke="#fff" stroke-miterlimit="10.433" stroke-width=".002" d="m22.953 112.856-.017-.067-.034-.05-.017-.067-.017-.05-.033-.05-.017-.05-.033-.05-.017-.05-.017-.05-.033-.05-.017-.034-.017-.05-.033-.034-.017-.033-.05-.067-.05-.067-.05-.05-.05-.05-.05-.05-.05-.034-.05-.033-.05-.034-.067-.017-.05-.017-.067-.017-.067-.017h-.133l-.067.017h-.067l-.083.017-.083.017-.083.017-.084.017-.1.033-.101.033-.1.017-.1.033-.117.033-6.972 2.274c-1.187.385-1.271.652-.987 1.873l-.301.1-1.455-4.464.318-.1c.485 1.187.752 1.304 1.906.937l3.11-1.003-1.638-4.882-3.11 1.02c-1.137.385-1.22.652-.936 1.873l-.301.117-1.455-4.481.301-.101c.501 1.188.769 1.321 1.906.937l7.156-2.307c1.054-.352 1.321-.602.986-1.873l.301-.117 1.455 4.481-.301.1c-.501-1.337-.886-1.271-2.09-.886l-3.143 1.02 1.672 4.949 3.311-1.07c.986-.418 1.237-.686.903-1.973l.318-.101 1.438 4.481z"/><path fill="#fff" d="m18.355 92.04 1.421 9.012-.317.05c-.234-1.053-.435-1.421-1.706-1.137l-7.424 1.187c-1.337.117-1.371.535-1.288 1.605l-.317.05-1.404-8.861 2.375-.435.067.418c-1.455.484-1.639.97-1.354 2.826l.368 2.24c.05.368.084.552.652.468l3.712-.585-.418-2.575c-.234-1.488-.652-1.588-1.873-1.588l-.067-.385 3.879-.619.067.385c-1.304.418-1.505.702-1.304 2.09l.384 2.575 4.13-.652c.686-.101.719-.117.318-2.608-.334-2.09-.97-2.842-2.775-3.311l-.067-.468z"/><path fill="#fff" stroke="#fff" stroke-miterlimit="10.433" stroke-width=".002" d="m18.355 92.04 1.421 9.012-.317.05c-.234-1.053-.435-1.421-1.706-1.137l-7.424 1.187c-1.337.117-1.371.535-1.288 1.605l-.317.05-1.404-8.861 2.375-.435.067.418c-1.455.484-1.639.97-1.354 2.826l.368 2.24c.05.368.084.552.652.468l3.712-.585-.418-2.575c-.234-1.488-.652-1.588-1.873-1.588l-.067-.385 3.879-.619.067.385c-1.304.418-1.505.702-1.304 2.09l.384 2.575 4.13-.652c.686-.101.719-.117.318-2.608-.334-2.09-.97-2.842-2.775-3.311l-.067-.468z"/><path fill="#fff" d="m21.398 67.712-1.89 8.929-.435.067c.15-1.087.083-1.488-1.187-1.756l-7.34-1.555c-1.321-.268-1.505.1-1.806 1.137l-.317-.067 1.855-8.794 2.375.451-.083.401c-1.522-.05-1.873.318-2.274 2.157l-.468 2.241c-.067.334-.117.552.451.668l3.679.77.535-2.559c.317-1.471-.05-1.722-1.188-2.157l.067-.368 3.846.803-.083.384c-1.354-.083-1.639.117-1.939 1.488l-.569 2.625 4.097.786c.686.134.702.134 1.221-2.324.435-2.073.1-2.993-1.405-4.08l.083-.468z"/><path fill="#fff" stroke="#fff" stroke-miterlimit="10.433" stroke-width=".002" d="m21.398 67.712-1.89 8.929-.435.05c.15-1.07.083-1.471-1.187-1.739l-7.34-1.555c-1.321-.268-1.505.1-1.806 1.137l-.317-.067 1.855-8.794 2.375.451-.083.401c-1.522-.05-1.873.318-2.274 2.157l-.468 2.241c-.067.334-.117.552.451.668l3.679.77.535-2.559c.317-1.471-.05-1.722-1.188-2.157l.067-.368 3.846.803-.083.384c-1.354-.083-1.639.117-1.939 1.488l-.569 2.625 4.097.786c.686.134.702.134 1.221-2.324.435-2.073.1-2.993-1.405-4.08l.083-.468z"/><path fill="#fff" d="m43.218 35.075-3.544 3.428-.234-.234c1.07-1.12.836-1.421.034-2.257l-5.869-6.069-.736.552c-1.338 1.287-1.455 1.839-.435 3.411l-.284.301-1.94-2.14 6.872-6.638 2.073 2.006-.301.268c-1.539-1.087-2.09-.986-3.444.318l-.786.719 6.153 6.136c.786.819 1.171.919 2.224-.033z"/><path fill="#fff" stroke="#fff" stroke-miterlimit="10.433" stroke-width=".002" d="m43.218 35.075-3.544 3.428-.234-.234c1.07-1.12.836-1.421.034-2.257l-5.869-6.069-.736.552c-1.338 1.287-1.455 1.839-.435 3.411l-.284.301-1.94-2.14 6.872-6.638 2.073 2.006-.301.268c-1.539-1.087-2.09-.986-3.444.318l-.786.719 6.153 6.136c.786.819 1.171.919 2.224-.033z"/><path fill="#fff" d="m50.524 17.051-.083.067-.067.067-.083.05-.067.05-.05.067-.067.05-.05.05-.05.05-.05.067-.05.05-.034.05-.05.05-.034.05-.017.067-.034.05-.017.05-.017.067-.017.066v.251l.017.083.017.067.017.083.017.084.033.083.034.083.017.05.033.05.017.05.017.05.033.05.017.05.033.05.017.067 4.213 6.22c.87 1.003 1.271.92 2.207.352l.184.267-3.929 2.659-.184-.268c1.07-.786 1.104-1.12.318-2.274l-4.247-6.303-.017.033 1.823 10.367-.201.15-8.661-5.3-.033.017 3.779 5.584c.986 1.455 1.488 1.555 2.541.92l.184.25-3.311 2.224-.167-.268c1.053-.819 1.321-.936.134-2.708l-3.829-5.685c-.752-1.104-1.12-1.02-2.19-.368l-.184-.267 2.775-1.873 8.025 4.899-1.688-9.18 2.792-1.889z"/><path fill="#fff" stroke="#fff" stroke-miterlimit="10.433" stroke-width=".002" d="m50.524 17.051-.083.067-.067.067-.083.05-.067.05-.05.067-.067.05-.05.05-.05.05-.05.067-.05.05-.034.05-.05.05-.034.05-.017.067-.034.05-.017.05-.017.067-.017.066v.251l.017.083.017.067.017.083.017.084.033.083.034.083.017.05.033.05.017.05.017.05.033.05.017.05.033.05.017.067 4.213 6.22c.87 1.003 1.271.92 2.207.352l.184.267-3.929 2.659-.184-.268c1.07-.786 1.104-1.12.318-2.274l-4.247-6.303-.017.033 1.823 10.367-.201.15-8.661-5.3-.033.017 3.779 5.584c.986 1.455 1.488 1.555 2.541.92l.184.25-3.311 2.224-.167-.268c1.053-.819 1.321-.936.134-2.708l-3.829-5.685c-.752-1.104-1.12-1.02-2.19-.368l-.184-.267 2.775-1.873 8.025 4.899-1.688-9.18 2.792-1.889z"/><path fill="#fff" d="m75.571 8.658-.1.034-.084.033-.083.033-.084.034-.083.033-.083.05-.067.034-.067.033-.067.034-.066.05-.05.05-.05.034-.05.05-.05.067-.05.05-.033.067-.037.066-.017.067-.034.083-.016.067-.017.1v.084l-.017.05v.167l.017.05v.183l.017.05v.067l.017.067.017.083.017.067.017.067v.083l.034.084.017.083.017.083.017.083.034.084 2.307 8.594-.284.067-9.597-7.006h-.033l1.722 6.371c.452 1.688.903 1.956 2.107 1.688l.017.301-3.829 1.037-.034-.301c1.221-.418 1.505-.752 1.02-2.524l-1.939-7.207c-.886-.635-1.17-.652-1.822-.468l-.088-.314 2.792-.752 8.376 6.169h.034l-1.472-5.467c-.518-1.873-1.003-1.873-2.14-1.655l-.083-.317 3.829-1.037z"/><path fill="#fff" stroke="#fff" stroke-miterlimit="10.433" stroke-width=".002" d="m75.571 8.658-.1.034-.084.033-.083.033-.084.034-.083.033-.083.05-.067.034-.067.033-.067.034-.066.05-.05.05-.05.034-.05.05-.05.067-.05.05-.033.067-.037.066-.017.067-.034.083-.016.067-.017.1v.084l-.017.05v.167l.017.05v.183l.017.05v.067l.017.067.017.083.017.067.017.067v.083l.034.084.017.083.017.083.017.083.034.084 2.307 8.594-.284.067-9.597-7.006h-.033l1.722 6.371c.452 1.688.903 1.956 2.107 1.672l.017.318-3.829 1.037-.034-.301c1.221-.418 1.505-.752 1.02-2.524l-1.939-7.207c-.886-.635-1.17-.652-1.822-.468l-.088-.315 2.792-.752 8.376 6.169h.034l-1.472-5.467c-.518-1.873-1.003-1.873-2.14-1.655l-.083-.317 3.829-1.037z"/><path fill="#fff" d="m84.784 18.456-4.916.535.034-.318c1.521-.234 1.538-.635 1.404-1.873l-.919-8.41-.903.101c-1.856.201-2.274.568-2.441 2.441l-.401.05-.217-2.876 9.48-1.037.418 2.859-.403.034c-.552-1.806-1.07-2.057-2.909-1.856l-.903.1.919 8.594c.134 1.137.368 1.438 1.789 1.337z"/><path fill="#fff" stroke="#fff" stroke-miterlimit="10.433" stroke-width=".002" d="m84.784 18.456-4.916.535.034-.318c1.521-.234 1.538-.635 1.404-1.873l-.919-8.41-.903.101c-1.856.201-2.274.568-2.441 2.441l-.401.05-.217-2.876 9.48-1.037.418 2.859-.403.034c-.552-1.806-1.07-2.057-2.909-1.856l-.903.1.919 8.594c.134 1.137.368 1.438 1.789 1.337z"/><path fill="#fff" d="m109.228 17.419.017-.067v-.067l.017-.117v-.117l.017-.117v-.201l-.017-.1v-.084l-.017-.083-.017-.083-.017-.067-.017-.083-.034-.067-.033-.05-.034-.067-.034-.05-.05-.05-.05-.05-.05-.05-.05-.033-.067-.05-.067-.033-.066-.034-.067-.05-.083-.033-.084-.034-.083-.033-.101-.017-.084-.034-.117-.033-.101-.034-.117-.033-2.375-.636-.903 3.578c-.317 1.237-.05 1.521 1.104 1.873l-.083.301-4.581-1.17.083-.318c1.238.251 1.505.05 1.856-1.287l1.806-7.106c.334-1.288-.034-1.488-1.037-1.823l.066-.317 8.711 2.224-.552 2.357-.418-.1c.134-1.521-.217-1.906-2.04-2.358l-2.24-.585c-.401-.1-.535-.067-.669.435l-.919 3.628 2.375.619c1.337.334 1.722.1 2.19-1.104l.384.1-.969 3.813z"/><path fill="#fff" stroke="#fff" stroke-miterlimit="10.433" stroke-width=".002" d="m109.228 17.419.017-.067v-.067l.017-.117v-.117l.017-.117v-.201l-.017-.1v-.084l-.017-.083-.017-.083-.017-.067-.017-.083-.034-.067-.033-.05-.034-.067-.034-.05-.05-.05-.05-.05-.05-.05-.05-.033-.067-.05-.067-.033-.066-.034-.067-.05-.083-.033-.084-.034-.083-.033-.101-.017-.084-.034-.117-.033-.101-.034-.117-.033-2.375-.636-.903 3.578c-.317 1.237-.05 1.521 1.104 1.873l-.083.301-4.581-1.17.083-.318c1.238.251 1.505.05 1.856-1.287l1.806-7.106c.334-1.288-.034-1.488-1.037-1.823l.066-.317 8.711 2.224-.552 2.357-.418-.1c.134-1.521-.217-1.906-2.04-2.358l-2.24-.585c-.401-.1-.535-.067-.669.435l-.919 3.628 2.375.619c1.337.334 1.722.1 2.19-1.104l.384.1-.969 3.813z"/><path fill="#fff" d="m119.962 25.996-4.464-2.123.134-.285c1.438.602 1.638.268 2.19-.853l3.628-7.641-.836-.401c-1.672-.803-2.224-.702-3.344.802l-.384-.167 1.338-2.558 8.61 4.096-1.137 2.642-.368-.167c.485-1.839.184-2.324-1.504-3.11l-.819-.401-3.712 7.808c-.485 1.037-.452 1.421.819 2.073z"/><path fill="#fff" stroke="#fff" stroke-miterlimit="10.433" stroke-width=".002" d="m119.962 25.996-4.464-2.123.134-.285c1.438.602 1.638.268 2.19-.853l3.628-7.641-.836-.401c-1.672-.803-2.224-.702-3.344.802l-.384-.167 1.338-2.558 8.61 4.096-1.137 2.642-.368-.167c.485-1.839.184-2.324-1.504-3.11l-.819-.401-3.712 7.808c-.485 1.037-.452 1.421.819 2.073z"/><path fill="#fff" d="m122.336 26.699.067.033.05.034.05.033.05.034.05.033.05.017.05.034.05.017.05.017.034.034.05.017.05.017.033.017.05.017.067.033.083.017.067.017h.067l.067.017.067-.017h.067l.05-.017.067-.017.05-.017.067-.033.05-.034.05-.033.05-.034.067-.05.05-.05.05-.067.05-.067.067-.067.05-.067.05-.084.067-.083.067-.083.067-.083.05-.101 4.146-6.053c.702-1.036.602-1.304-.384-2.09l.184-.267 3.896 2.658-.184.251c-1.121-.635-1.404-.569-2.09.418l-1.856 2.725 4.23 2.893 1.856-2.725c.702-1.02.602-1.304-.368-2.09l.184-.268 3.879 2.659-.184.268c-1.12-.652-1.405-.568-2.09.418l-4.23 6.203c-.635.919-.686 1.288.368 2.09l-.184.268-3.879-2.642.184-.284c1.204.752 1.472.485 2.19-.552l1.856-2.726-4.23-2.893-1.973 2.859c-.619.936-.669 1.287.385 2.106l-.184.268-3.896-2.658z"/><path fill="#fff" stroke="#fff" stroke-miterlimit="10.433" stroke-width=".002" d="m122.336 26.699.067.033.05.034.05.033.05.034.05.033.05.017.05.034.05.017.05.017.034.034.05.017.05.017.033.017.05.017.067.033.083.017.067.017h.067l.067.017.067-.017h.067l.05-.017.067-.017.05-.017.067-.033.05-.034.05-.033.05-.034.067-.05.05-.05.05-.067.05-.067.067-.067.05-.067.05-.084.067-.083.067-.083.067-.083.05-.101 4.146-6.053c.702-1.036.602-1.304-.384-2.09l.184-.267 3.896 2.658-.184.251c-1.121-.635-1.404-.569-2.09.418l-1.856 2.708 4.23 2.909 1.856-2.725c.702-1.02.602-1.304-.368-2.09l.184-.268 3.879 2.659-.184.268c-1.12-.652-1.405-.568-2.09.418l-4.23 6.203c-.635.919-.686 1.288.368 2.09l-.184.268-3.879-2.642.184-.284c1.204.752 1.472.485 2.19-.552l1.856-2.742-4.23-2.876-1.973 2.859c-.619.936-.669 1.287.385 2.106l-.184.268-3.896-2.658z"/><path fill="#fff" d="m139.04 40.509-6.654-6.237.217-.234c.836.686 1.221.836 2.106-.117l5.133-5.468c.919-.986.702-1.337-.017-2.124l.218-.234 6.554 6.136-1.622 1.806-.318-.284c.853-1.271.719-1.772-.652-3.06l-1.672-1.555c-.251-.25-.401-.385-.786.033l-2.575 2.742 1.89 1.789c1.104 1.02 1.505.836 2.458.083l.301.268-2.691 2.876-.284-.268c.769-1.137.752-1.471-.251-2.458l-1.89-1.806-2.859 3.06c-.485.518-.501.518 1.337 2.24 1.555 1.455 2.508 1.672 4.23.937l.334.317z"/><path fill="#fff" stroke="#fff" stroke-miterlimit="10.433" stroke-width=".002" d="m139.04 40.509-6.654-6.237.217-.234c.836.686 1.221.836 2.106-.117l5.133-5.468c.919-.986.702-1.337-.017-2.124l.218-.234 6.554 6.136-1.622 1.806-.318-.284c.853-1.271.719-1.772-.652-3.06l-1.672-1.555c-.251-.25-.401-.385-.786.033l-2.575 2.742 1.89 1.789c1.104 1.02 1.505.836 2.458.083l.301.268-2.691 2.876-.284-.268c.769-1.137.752-1.471-.251-2.458l-1.89-1.806-2.859 3.06c-.485.518-.501.518 1.337 2.24 1.555 1.455 2.508 1.672 4.23.937l.334.317z"/><path fill="#fff" d="m145.611 49.137-2.859-4.013.251-.201c.953 1.221 1.304 1.037 2.307.318l6.905-4.916-.535-.736c-1.087-1.521-1.605-1.705-3.328-.936l-.234-.334 2.391-1.588 5.551 7.775-2.291 1.755-.234-.334c1.304-1.371 1.287-1.939.2-3.444l-.518-.752-7.056 5.016c-.937.669-1.07 1.02-.285 2.207z"/><path fill="#fff" stroke="#fff" stroke-miterlimit="10.433" stroke-width=".002" d="m145.611 49.137-2.859-4.013.251-.201c.953 1.221 1.304 1.037 2.307.318l6.905-4.916-.535-.736c-1.087-1.521-1.605-1.705-3.328-.936l-.234-.334 2.391-1.588 5.551 7.775-2.291 1.755-.234-.334c1.304-1.371 1.287-1.939.2-3.444l-.518-.752-7.056 5.016c-.937.669-1.07 1.02-.285 2.207z"/><path fill="#fff" d="m155.927 69.552-2.893-8.661.301-.1c.401 1.003.668 1.321 1.906.903l7.123-2.374c1.288-.418 1.254-.836.987-1.873l.301-.1 2.842 8.527-2.274.802-.134-.401c1.354-.719 1.472-1.22.87-2.993l-.719-2.173c-.117-.334-.167-.535-.719-.352l-3.562 1.188.819 2.475c.485 1.438.919 1.471 2.107 1.254l.134.368-3.729 1.254-.117-.368c1.221-.619 1.354-.937.919-2.274l-.786-2.491-3.979 1.337c-.652.217-.669.217.117 2.608.686 2.006 1.421 2.642 3.277 2.809l.15.451z"/><path fill="#fff" stroke="#fff" stroke-miterlimit="10.433" stroke-width=".002" d="m155.927 69.552-2.893-8.661.301-.1c.401 1.003.668 1.321 1.906.903l7.123-2.374c1.288-.418 1.254-.836.987-1.873l.301-.1 2.842 8.527-2.274.802-.134-.401c1.354-.719 1.472-1.22.87-2.993l-.719-2.173c-.117-.334-.167-.535-.719-.352l-3.562 1.188.819 2.475c.485 1.438.919 1.471 2.107 1.254l.134.368-3.729 1.254-.117-.368c1.221-.619 1.354-.937.919-2.274l-.786-2.491-3.979 1.337c-.652.217-.669.217.117 2.608.686 2.006 1.421 2.642 3.277 2.809l.15.451z"/><path fill="#fff" d="m166.327 89.499-.017-.418c1.388-.318 2.892-1.421 2.859-3.193-.017-.853-.552-1.706-1.605-1.689-2.541.05-2.775 5.702-6.236 5.769-1.438.017-3.094-1.104-3.127-3.511-.017-1.287.535-2.124.519-2.642 0-.351-.301-.519-.569-.519v-.368l3.578-.568v.384c-.786.351-2.959 1.237-2.926 3.528.033 1.354 1.003 2.007 1.922 1.99.953-.017 1.521-.301 2.943-2.809.87-1.571 1.588-2.658 3.26-2.692 1.923-.033 2.909 1.488 2.926 3.01.034 1.02-.535 1.939-.535 2.357.017.485.401.552.602.585v.351z"/><path fill="#fff" stroke="#fff" stroke-miterlimit="10.433" stroke-width=".002" d="m166.327 89.499-.017-.418c1.388-.318 2.892-1.421 2.859-3.193-.017-.853-.552-1.706-1.605-1.689-2.541.05-2.775 5.702-6.236 5.769-1.438.017-3.094-1.104-3.127-3.511-.017-1.287.535-2.124.519-2.642 0-.351-.301-.519-.569-.519v-.368l3.578-.568v.384c-.786.351-2.959 1.237-2.926 3.528.033 1.354 1.003 2.007 1.922 1.99.953-.017 1.521-.301 2.943-2.809.87-1.571 1.588-2.658 3.26-2.692 1.923-.033 2.909 1.488 2.926 3.01.034 1.02-.535 1.939-.535 2.357.017.485.401.552.602.585v.351z"/><path fill="#fff" d="M167.915 102.975v-.535l-.017-.101-.017-.083-.017-.083-.017-.083-.017-.067-.017-.067-.034-.067-.034-.066-.033-.067-.05-.05-.05-.05-.051-.05-.066-.05-.05-.05-.083-.033-.067-.034-.084-.05-.1-.034-.083-.017-.117-.033-.1-.034-.117-.034h-.067l-.067-.017-.067-.017-.066-.017h-.067l-.083-.017-.067-.017h-.083l-.084-.017-.066-.017-4.397-.568c-1.337-.167-4.481-.569-3.913-4.916.535-4.163 3.795-3.745 4.815-3.612l5.233.686c1.237.151 1.455-.066 1.706-1.32l.317.033-.619 4.749-.317-.034c.067-1.337-.117-1.571-1.304-1.722l-5.367-.702c-1.087-.133-3.411-.435-3.795 2.492-.167 1.304.234 2.324.97 2.909.334.267.869.518 2.224.686l4.531.585c1.806.234 2.14-.134 2.357-1.288l.317.034-.501 3.896z"/><path fill="#fff" stroke="#fff" stroke-miterlimit="10.433" stroke-width=".002" d="M167.915 102.975v-.535l-.017-.101-.017-.083-.017-.083-.017-.083-.017-.067-.017-.067-.034-.067-.034-.066-.033-.067-.05-.05-.05-.05-.051-.05-.066-.05-.05-.05-.083-.033-.067-.034-.084-.05-.1-.034-.083-.017-.117-.033-.1-.034-.117-.034h-.067l-.067-.017-.067-.017-.066-.017h-.067l-.083-.017-.067-.017h-.083l-.084-.017-.066-.017-4.397-.568c-1.337-.167-4.481-.569-3.913-4.916.535-4.163 3.795-3.745 4.815-3.612l5.233.686c1.237.151 1.455-.066 1.706-1.32l.317.033-.619 4.749-.317-.034c.067-1.337-.117-1.571-1.304-1.722l-5.367-.702c-1.087-.133-3.411-.435-3.795 2.492-.167 1.304.234 2.324.97 2.909.334.267.869.518 2.224.686l4.531.585c1.806.234 2.14-.134 2.357-1.288l.317.034-.501 3.896z"/><path fill="#fff" d="m159.555 126.132.034-.1.034-.117.033-.117.017-.05.017-.067v-.05l.017-.067v-.284l-.017-.067v-.083l-.017-.083-.017-.084-.017-.083-.033-.1-.034-.101-.034-.117-.05-.1-.05-.117-.05-.117-.05-.134-.066-.133-.034-.067-.034-.067-.05-.083-.034-.067-.05-.083-.034-.066-.05-.084-.05-.083-.05-.083-.05-.083-2.324-3.929-2.959-1.438c-1.087-.535-1.455-.468-2.124.886l-.301-.134 2.273-4.648.301.134c-.702 1.505-.385 1.722.786 2.291l2.642 1.287 3.896-.568c3.026-.435 3.193-.635 3.578-1.288l.301.134-2.09 4.247-.284-.134c.318-.703.485-1.104.05-1.304-.167-.083-.518-.1-.786-.067l-4.464.602 2.374 3.862c.117.184.234.385.451.485.468.234.786-.334 1.02-.803l.284.134-1.622 3.327z"/><path fill="#fff" stroke="#fff" stroke-miterlimit="10.433" stroke-width=".002" d="m159.555 126.132.034-.117.034-.101.033-.117.017-.05.017-.067v-.05l.017-.067v-.284l-.017-.067v-.083l-.017-.083-.017-.084-.017-.1-.033-.083-.034-.101-.034-.117-.05-.1-.05-.117-.05-.117-.05-.134-.066-.133-.034-.067-.034-.067-.05-.083-.034-.067-.05-.083-.034-.066-.05-.084-.05-.083-.05-.083-.05-.083-2.324-3.929-2.959-1.438c-1.087-.535-1.455-.468-2.124.886l-.301-.134 2.273-4.648.301.134c-.702 1.505-.385 1.722.786 2.291l2.642 1.287 3.896-.568c3.026-.435 3.193-.635 3.578-1.288l.301.134-2.09 4.247-.284-.134c.318-.703.485-1.104.05-1.304-.167-.083-.518-.1-.786-.067l-4.464.602 2.374 3.862c.117.184.234.385.451.485.468.234.786-.334 1.02-.803l.284.134-1.622 3.327z"/><path fill="#fff" d="M23.521 61.793c-.468 1.221-.802 1.405-2.023.987l-2.909-1.037c.234-.368.351-.669.485-1.054.602-1.672.686-2.792.284-3.711-.167-.351-.568-1.288-1.806-1.739-2.023-.719-3.578.953-4.364 3.144l-1.505 4.213.301.101c.518-1.121.786-1.221 1.99-.736l6.905 2.475c1.07.317 1.421.451 1.053 1.822l.418-.017 1.588-4.448zm-5.166-1.086-.033.117-.05.117-.05.117-.05.117-.05.117-.05.117-.05.117-4.146-1.488c-.535-.184-.468-.368-.301-.853.251-.702 1.104-3.009 3.377-2.19 2.424.87 1.672 2.993 1.455 3.578zM29.959 49.555c-.401.635-.669.752-2.023.652l-10.466-.836-.151.284 5.651 7.039c.569.719 1.371 1.772 1.521 2.224.134.435.034.702-.067.936l.268.15 1.588-2.942-.267-.15c-.184.317-.552 1.003-1.188.668a1.4 1.4 0 0 1-.485-.418l-1.388-1.622 2.107-3.913 1.755.167c.251.017.786.1 1.037.217.535.301.351.802.067 1.354l.268.15 2.057-3.812zm-7.089 5.801-3.177-3.929 5.033.485zM36.296 42.181l1.722-2.157-.25-.201c-.452.535-.953.669-1.539.686l-5.518.15c.402-.786 1.421-2.775-.384-4.146-2.073-1.588-4.046.401-4.966 1.588l-2.842 3.712.251.184c.819-.853 1.086-.97 2.157-.117l5.818 4.447c.937.703 1.17.97.401 2.107l.251.201 2.859-3.712-.251-.201c-.886 1.037-1.237.97-2.14.284l-2.642-2.04.485-.77zm-6.705-.886-.083.151-.083.15-.085.134-.101.133-.083.134-.083.117-.101.134-.083.117-.083.117-.083.1-3.294-2.525c-.401-.301-.401-.501.15-1.204.418-.552 1.806-2.274 3.595-.903l.083.067.084.067.083.067.067.067.067.083.067.067.067.083.05.067.05.067.05.083.034.083.05.067.034.084.017.067.033.083.017.083.033.067.017.083.017.15.017.167-.017.15v.167l-.034.151-.033.167-.034.15-.05.15-.066.167-.067.15-.067.15-.067.15zM96.487 7.303l-.25-.033h-.536l-.25.017-.251.016-.268.05-.251.05-.251.05-.25.084-.25.083-.234.083-.251.117-.235.119-.217.134-.218.15-.217.15-.217.167-.201.185-.184.184-.184.217-.184.217-.167.217-.151.251-.15.25-.133.268-.118.284-.117.301-.1.301-.083.318-.067.334-.067.334-.05.368c-.368 3.595 1.722 6.019 4.916 6.337 3.06.317 5.735-1.639 6.103-5.233.384-3.861-2.157-6.085-4.917-6.37m3.043 5.468-.017.351-.033.351c-.368 3.695-2.241 5.016-4.113 4.832s-3.428-1.856-3.06-5.568c.401-3.845 2.408-5.016 4.13-4.832l.15.017.167.033.15.033.167.05.15.05.15.067.167.067.15.083.134.083.15.101.133.117.151.117.117.134.134.134.117.15.117.167.117.167.101.184.083.201.101.2.083.218.067.234.067.234.05.251.05.268.034.284.017.284.017.301.017.317z"/><path fill="none" stroke="#fff" stroke-miterlimit="10.433" stroke-width=".002" d="m99.48 13.473.033-.351.017-.351.017-.318-.017-.317-.017-.301-.017-.284-.034-.284-.05-.268-.05-.251-.067-.234-.067-.234-.083-.218-.101-.2-.083-.201-.101-.184-.115-.167-.117-.167-.117-.15-.134-.134-.117-.134-.151-.117-.133-.117-.15-.101-.134-.083-.15-.083-.167-.067-.15-.067-.15-.05-.167-.05-.15-.033-.167-.033-.15-.017c-1.722-.184-3.729.987-4.13 4.832-.368 3.712 1.187 5.384 3.06 5.568s3.741-1.139 4.109-4.834z"/><path fill="#fff" d="m159.321 49.739-2.123-4.164-.285.151c.435 1.12.401 1.404-.702 1.973l-6.538 3.327c-1.12.569-1.471.669-2.173-.518l-.284.15 2.123 4.18.285-.151c-.552-1.237-.334-1.521.669-2.04l2.976-1.521.452.836-2.809 5.952 1.237 2.424.285-.15c-.285-.635-.201-1.12.033-1.672l2.24-5.049c.535.702 1.906 2.474 3.929 1.455 2.323-1.187 1.37-3.846.685-5.183m-1.689 3.912-.101.05-.1.05-.1.033-.101.034-.084.033-.1.017-.1.033-.083.017-.083.017h-.184l-.084.017-.083-.017h-.166l-.084-.017-.066-.017-.083-.017-.151-.05-.15-.067-.134-.067-.134-.083-.134-.083-.134-.101-.117-.1-.134-.117-.1-.117-.117-.117-.101-.134-.117-.134-.101-.134-.083-.134-.101-.15-.083-.134-.083-.134-.083-.15-.067-.134-.083-.134-.066-.117-.067-.134-.066-.117 3.712-1.89c.435-.217.618-.134 1.02.652.313.621 1.266 2.627-.724 3.647"/><path fill="none" stroke="#fff" stroke-miterlimit="10.433" stroke-width=".002" d="m153.62 51.244.066.117.067.134.066.117.083.134.067.134.083.15.083.134.083.134.101.15.083.134.101.134.117.134.101.134.117.117.1.117.134.117.117.1.134.101.134.083.134.083.134.067.15.067.151.05.083.017.066.017.084.017h.166l.083.017.084-.017h.184l.083-.017.083-.017.1-.033.1-.017.084-.033.101-.034.1-.033.1-.05.101-.05c1.99-1.02 1.037-3.026.719-3.645-.401-.786-.585-.87-1.02-.652z"/><path fill="#fff" d="m168.316 74.183-8.761-2.107c-.802-.2-2.106-.501-2.575-.819-.368-.251-.451-.535-.518-.786l-.318.05.552 3.294.318-.05c-.05-.351-.184-1.12.518-1.254a2.2 2.2 0 0 1 .652.033l2.09.435.719 4.38-1.488.953c-.217.134-.736.452-.986.485-.636.117-.736-.435-.836-1.053l-.317.05.702 4.247.318-.05c-.067-.735.083-1.003 1.204-1.739l8.778-5.735zm-6.287 2.826-.635-3.862 4.899 1.17z"/><path fill="#fff" stroke="#fff" stroke-miterlimit="10.433" stroke-width=".002" d="M167.53 104.63c-.468 1.104-.685 1.304-1.889.936l-7.006-2.106c-1.22-.368-1.538-.519-1.237-1.856l-.301-.101-1.338 4.481.301.101c.451-1.271.803-1.354 1.906-1.02l3.177.953-.234.92-6.153 2.357-.786 2.608.318.1c.234-.652.635-.953 1.187-1.187l5.1-2.107c-.084.87-.334 3.094 1.839 3.762 2.491.736 3.645-1.839 4.063-3.277l1.354-4.464zm-1.505 3.946c-.201.668-.886 2.775-3.043 2.124l-.117-.034-.101-.033-.1-.034-.084-.05-.1-.033-.083-.05-.083-.05-.067-.05-.083-.05-.066-.05-.067-.05-.066-.067-.05-.05-.05-.067-.067-.067-.05-.067-.033-.067-.05-.067-.083-.134-.05-.15-.067-.15-.033-.151-.034-.15-.033-.167-.017-.151v-.501l.017-.167.017-.167.017-.167.034-.167.017-.151.033-.167.034-.15.05-.167.033-.151.034-.15.05-.134.034-.134.033-.134 3.996 1.187c-.006-.002.529.332.278 1.185z"/><path fill="none" stroke="#fff" stroke-miterlimit="10.433" stroke-width=".002" d="m161.745 106.202-.033.134-.034.134-.05.134-.034.15-.033.151-.05.167-.034.15-.033.167-.017.151-.034.167-.017.167-.017.167-.017.167v.501l.017.151.033.167.034.15.033.151.067.15.05.15.083.134.05.067.033.067.05.067.067.067.05.067.05.05.066.067.067.05.066.05.083.05.067.05.083.05.083.05.1.033.084.05.1.034.101.033.117.034c2.157.652 2.842-1.455 3.043-2.124.251-.853-.284-1.188-.284-1.188z"/><path fill="#fff" d="m65.873 22.151-8.343 3.712-.133-.284c.953-.502 1.254-.803.585-1.923l-3.06-6.855c-.401-1.287-.819-1.221-1.839-.869l-.117-.285 8.193-3.662 1.037 2.19-.385.167c-.836-1.271-1.354-1.337-3.076-.568l-2.09.92c-.318.15-.502.234-.268.752l1.521 3.427 2.391-1.053c1.371-.619 1.371-1.053 1.037-2.224l.368-.167 1.588 3.578-.351.167c-.736-1.154-1.07-1.271-2.357-.703l-2.391 1.02 1.706 3.846c.284.619.301.635 2.591-.385 1.939-.869 2.508-1.672 2.491-3.528l.418-.201z"/><path fill="#fff" stroke="#fff" stroke-miterlimit="10.433" stroke-width=".002" d="m65.873 22.151-8.343 3.712-.133-.284c.953-.502 1.254-.803.585-1.923l-3.06-6.855c-.401-1.304-.819-1.221-1.839-.869l-.117-.285 8.193-3.662 1.037 2.19-.385.167c-.836-1.271-1.354-1.337-3.076-.568l-2.09.92c-.318.15-.502.234-.268.752l1.521 3.427 2.391-1.053c1.371-.619 1.371-1.053 1.037-2.224l.368-.167 1.588 3.578-.351.167c-.736-1.154-1.07-1.271-2.357-.703l-2.391 1.02 1.706 3.846c.284.619.301.635 2.591-.385 1.939-.869 2.508-1.672 2.491-3.528l.418-.201z"/><path fill="#fff" d="m69.167 167.129.083.017.084.017.1.017.083.017.067.017h.083l.084.017h.066l.084.017h.134l.067-.017h.134l.05-.017.066-.017.05-.034.067-.017.05-.034.05-.033.05-.05.05-.034.034-.05.017-.034.033-.033.017-.033.017-.017.017-.033.017-.05.034-.033.017-.034.017-.033.017-.05.017-.05.017-.033.017-.05v-.05l.017-.051.017-.05.017-.05.017-.067 1.672-7.474c.067-.351.167-.786-.384-.903-.201-.05-.201-.05-1.221.117l.067-.234 3.311-.836.117.067-2.207 9.898c-.184.786.1 1.053 1.337 1.321l-.05.25-4.548-1.02z"/><path fill="#fff" stroke="#fff" stroke-miterlimit="10.433" stroke-width=".002" d="m69.167 167.129.083.017.084.017.1.017.083.017.067.017h.083l.084.017h.066l.084.017h.134l.067-.017h.134l.05-.017.066-.017.05-.034.067-.017.05-.034.05-.033.05-.05.05-.034.034-.05.017-.034.033-.033.017-.033.017-.017.017-.033.017-.05.034-.033.017-.034.017-.033.017-.05.017-.05.017-.033.017-.05v-.05l.017-.051.017-.05.017-.05.017-.067 1.672-7.474c.067-.351.167-.786-.384-.903-.201-.05-.201-.05-1.221.117l.067-.234 3.311-.836.117.067-2.207 9.898c-.184.786.1 1.053 1.337 1.321l-.05.25-4.548-1.02z"/><path fill="#fff" d="m87.492 158.953-4.347 10.784-1.104-.066 4.046-9.832-3.662-.25c-1.104-.084-1.438.384-2.056 1.22l-.268-.15.836-1.689.334-.719 6.236.435z"/><path fill="#fff" stroke="#fff" stroke-miterlimit="10.433" stroke-width=".002" d="m87.492 158.953-4.347 10.784-1.104-.066 4.046-9.832-3.662-.25c-1.104-.084-1.438.384-2.056 1.22l-.268-.15.836-1.689.334-.719 6.236.435z"/><path fill="#fff" d="M109.512 160.391c-.652-2.759-2.658-4.264-4.682-3.779-2.157.485-3.06 2.575-2.541 4.765.301 1.354 1.521 3.093 3.728 2.575.82-.184 1.622-.685 2.207-1.471l.034.034v.317l-.017.117-.017.134v.15l-.033.167-.017.184-.034.184-.05.201-.05.201-.05.217-.067.217-.083.234-.083.217-.101.234-.101.251-.117.234-.15.234-.134.234-.167.234-.184.234-.201.234-.201.217-.234.217-.251.201-.134.101-.134.1-.134.1-.15.101-.15.083-.15.101-.167.083-.167.083-.167.067-.184.083.133.318c4.131-1.235 5.803-4.913 5-8.408m-1.555 1.755c-.284.368-.902.819-1.454.953-1.739.401-2.559-1.438-2.843-2.692-.318-1.354-.301-2.976 1.087-3.294l.1-.017.101-.017.1-.017h.368l.083.017.1.017.083.033.067.017.083.034.083.033.067.033.084.05.066.034.067.05.083.05.117.117.134.117.117.134.117.134.101.151.1.15.101.167.083.15.083.167.083.167.067.184.067.167.067.167.05.167.067.167.05.151.033.15.05.15.033.134.034.134.017.117.033.117.017.101.15.635c.088.304.072.504-.096.721"/><path fill="none" stroke="#fff" stroke-miterlimit="10.433" stroke-width=".002" d="m107.907 160.792-.017-.101-.033-.117-.017-.117-.034-.134-.033-.134-.05-.15-.033-.15-.05-.151-.067-.167-.05-.167-.067-.167-.067-.167-.067-.184-.083-.167-.083-.167-.083-.15-.101-.167-.1-.15-.101-.151-.117-.134-.117-.134-.134-.117-.117-.117-.083-.05-.067-.05-.066-.034-.084-.05-.067-.033-.083-.033-.083-.034-.067-.017-.083-.033-.1-.017-.083-.017h-.368l-.1.017-.101.017-.1.017c-1.388.318-1.405 1.94-1.087 3.294.284 1.254 1.104 3.093 2.843 2.692.552-.134 1.17-.585 1.454-.953.167-.217.184-.418.101-.719zM93.311 167.096l.017.117.017.117.017.117.033.117.017.117.033.1.05.117.033.1.05.101.05.1.05.1.05.101.067.083.067.084.067.083.066.083.083.067.084.083.083.067.083.05.083.067.101.05.1.033.101.05.1.033.117.033.1.017.117.017.117.017h.368c1.07-.084 1.806-.853 1.722-2.04-.1-1.237-.853-1.689-2.892-2.926-.516.487-1.268 1.207-1.151 2.745z"/><path fill="#fff" stroke="#fff" stroke-miterlimit="10.433" stroke-width=".002" d="M98.41 166.929c-.1-1.137-.535-2.073-2.926-3.528.886-.552 2.173-1.371 2.057-2.926-.101-1.271-1.237-2.307-3.144-2.157-1.455.117-3.076 1.154-2.943 2.859v.134l.017.117.017.117.033.117.017.101.034.101.033.1.051.1.033.101.05.1.05.083.05.083.05.101.066.083.067.083.067.083.083.084.067.083.083.083.083.083.101.067.083.084.1.1.117.083.1.083.117.084.117.1.118.084.133.1.117.1.134.101.15.1c-1.421 1.254-2.073 1.839-1.956 3.311.1 1.321 1.321 2.608 3.428 2.441 2.795-.215 3.213-2.137 3.146-3.023zm-5.551-6.438c-.067-.802.418-1.739 1.672-1.839 1.304-.1 1.973.752 2.04 1.689v.519l-.017.117-.017.117-.017.117-.034.1-.033.101-.034.1-.033.101-.05.1-.033.083-.05.084-.05.083-.051.083-.067.067-.05.083-.05.067-.067.067-.067.067-.05.067-.067.067-.067.05-.117.117-.134.101-.117.1-.117.083c-.634-.334-2.206-1.17-2.323-2.491zm2.776 8.829h-.368l-.117-.017-.117-.017-.1-.017-.117-.033-.1-.033-.101-.05-.1-.033-.101-.05-.083-.067-.083-.05-.083-.067-.084-.083-.083-.067-.066-.083-.067-.083-.067-.084-.067-.083-.05-.101-.05-.1-.05-.1-.05-.101-.033-.1-.05-.117-.033-.1-.017-.117-.033-.117-.017-.117-.017-.117-.017-.117c-.117-1.538.636-2.257 1.154-2.742 2.04 1.237 2.792 1.688 2.892 2.926.08 1.184-.655 1.953-1.725 2.037z"/><path fill="none" stroke="#fff" stroke-miterlimit="10.433" stroke-width=".002" d="m95.183 162.982.117-.083.117-.1.134-.101.117-.117.067-.05.067-.067.05-.067.067-.067.067-.067.05-.067.05-.083.067-.067.051-.083.05-.083.05-.084.033-.083.05-.1.033-.101.034-.1.033-.101.034-.1.017-.117.017-.117.017-.117v-.519c-.067-.937-.736-1.789-2.04-1.689-1.254.101-1.739 1.037-1.672 1.839.116 1.321 1.688 2.157 2.323 2.491z"/><path fill="#fff" d="m45.241 115.498.585-2.341-2.023-1.287 2.391-.151.602-2.341.886 2.241 2.424-.15-1.856 1.538.887 2.24-2.04-1.287zM52.581 109.579l.602-2.34-2.057-1.288 2.408-.151.602-2.34.886 2.24 2.408-.167-1.856 1.555.903 2.241-2.04-1.288zM59.988 104.53l.585-2.341-2.04-1.288 2.408-.167.602-2.324.886 2.241 2.407-.168-1.856 1.539.887 2.24-2.04-1.287zM67.027 99.497l.602-2.341-2.04-1.287 2.408-.151.585-2.341.903 2.241 2.408-.15-1.856 1.538.886 2.241-2.04-1.288zM73.731 94.498l.602-2.341-2.039-1.287 2.407-.167.602-2.325.886 2.241 2.408-.167-1.856 1.538.886 2.24-2.04-1.287zM80.436 89.482l.602-2.341-2.039-1.27 2.407-.168.585-2.341.903 2.241 2.408-.151-1.856 1.539.886 2.24-2.04-1.287zM86.807 84.851l.602-2.325-2.04-1.304 2.407-.15.602-2.341.886 2.24 2.408-.15-1.856 1.538.887 2.241-2.04-1.287zM93.461 89.699l.585-2.341-2.04-1.287 2.408-.167.602-2.341.886 2.241 2.408-.151-1.856 1.555.902 2.224-2.056-1.287zM100.434 94.515l.601-2.341-2.023-1.287 2.391-.151.602-2.341.886 2.241 2.408-.168-1.856 1.555.903 2.224-2.04-1.27zM107.155 100.4l.602-2.341-2.04-1.287 2.408-.15.584-2.342.904 2.241 2.407-.15-1.873 1.521.904 2.257-2.04-1.304zM114.144 105.215l.602-2.34-2.04-1.288 2.407-.15.586-2.341.886 2.24 2.424-.15-1.856 1.538.887 2.24-2.04-1.287zM121.132 110.031l.602-2.341-2.04-1.288 2.409-.15.585-2.341.902 2.241 2.408-.168-1.856 1.556.886 2.24-2.039-1.288zM128.573 116.234l.585-2.341-2.04-1.288 2.408-.167.602-2.34.886 2.257 2.407-.167-1.855 1.538.903 2.24-2.04-1.287z"/><g fill="#fff"><path d="m115.833 127.152-.017-.15-.017-.134-.017-.15-.034-.134-.017-.133-.033-.15-.034-.134-.033-.134-.05-.117-.034-.134-.05-.117-.05-.134-.05-.117-.05-.117-.05-.117-.05-.117-.066-.101-.067-.117-.067-.1-.067-.101-.067-.1-.066-.1-.084-.083-.067-.101-.083-.083-.083-.084-.067-.066-.084-.083-.083-.067-.1-.066-.083-.067.167-.101c.97-.836 1.572-2.341 1.488-4.013-.101-2.408-1.622-4.247-3.377-4.08-1.772.15-3.093 2.24-2.977 4.648.067 1.588.736 2.909 1.689 3.595l-.167.151c-.953.853-1.555 2.374-1.455 4.029.134 2.407 1.672 4.213 3.428 4.029 1.755-.184 3.06-2.291 2.926-4.698v-.152z"/><path d="m88.462 93.511-42 29.795c10.5 15.483 21.77 15.801 21.77 15.801 17.255 5.902 20.448 11.67 20.448 11.67l.017-.017.034-.066.083-.101.117-.134.151-.184.167-.201.234-.234.25-.268.301-.301.334-.318.368-.351.418-.368.468-.385.502-.401.552-.418.602-.418.652-.451.685-.452.752-.451.786-.469.853-.468.903-.468.953-.468 1.02-.451 1.054-.468 1.137-.451 1.17-.452 1.254-.435 1.304-.418 1.354-.401 1.438-.401 1.488-.368s11.219-.385 21.118-15.784zm24.11 40.345-.385-.017-.351-.033-.351-.05-.318-.067-.317-.083-.318-.101-.285-.134-.267-.134-.268-.15-.251-.167-.234-.184-.234-.201-.217-.217-.201-.234-.184-.234-.184-.268-.167-.267-.151-.285-.15-.284-.133-.301-.134-.318-.117-.334-.1-.334-.101-.352-.1-.351-.084-.368-.067-.368-.066-.385-.051-.385-.05-.401-.05-.401-.034-.401s-1.588-.184-1.889 1.354c0 0-.435-1.304-1.572-1.354l-29.12.044-.056.056-.117.101-.117.1-.117.084-.117.083-.134.083-.134.067-.134.067-.134.05-.15.05-.134.05-.151.033-.15.034-.167.017-.15.017h-.15a3 3 0 0 1-2.124-.887h.001-.051v6.487l-5.284-.067.017-5.267 2.106.017.05 1.237h1.087l.017-2.458h-7.424v2.458h1.188l-.034-1.237h2.09v5.267h-5.25v-6.571h-2.291s-2.893-1.839-.017-4.164l13.519-.014-.001.001a3.02 3.02 0 0 1 2.399-1.19c.96 0 1.818.461 2.379 1.184l28.453-.03c1.505.05 1.839-1.104 1.839-1.104.352 1.321 1.973 1.053 1.973 1.053l.05.05c.201-4.598 1.388-7.825 5.869-7.842 4.782-.017 5.735 4.08 5.735 9.597s-.767 10.37-5.683 10.353"/></g></svg>